# Made in Blockbench 5.0.0
#mtllib test.mtl

o torus
v 0.25455173280956644 0.31690952255126037 1
v 0.29955054691767413 0.22408887241858733 1.176776695296637
v 0.31818966601195814 1.940511162058585e-17 1.25
v 0.2995505469176742 -0.2240888724185873 1.1767766952966372
v 0.25455173280956644 -0.31690952255126037 1
v 0.20955291870145884 -0.22408887241858738 0.8232233047033628
v 0.19091379960717494 -5.821533486175754e-17 0.75
v 0.2095529187014588 0.22408887241858727 0.8232233047033628
v 0.6954482671904333 0.31690952255126037 0.7320508075688774
v 0.8183873136141305 0.22408887241858733 0.8614603301201377
v 0.8693103339880415 1.940511162058585e-17 0.9150635094610965
v 0.8183873136141306 -0.2240888724185873 0.8614603301201378
v 0.6954482671904333 -0.31690952255126037 0.7320508075688774
v 0.572509220766736 -0.22408887241858738 0.6026412850176169
v 0.5215862003928251 -5.821533486175754e-17 0.549038105676658
v 0.572509220766736 0.22408887241858727 0.6026412850176169
v 0.9499999999999998 0.31690952255126037 0.2679491924311227
v 1.1179378605318047 0.22408887241858733 0.31531636517649914
v 1.1875 1.940511162058585e-17 0.3349364905389033
v 1.117937860531805 -0.2240888724185873 0.31531636517649914
v 0.9499999999999998 -0.31690952255126037 0.2679491924311227
v 0.7820621394681947 -0.22408887241858738 0.22058201968574617
v 0.7124999999999999 -5.821533486175754e-17 0.20096189432334202
v 0.7820621394681947 0.22408887241858727 0.22058201968574614
v 0.9499999999999998 0.31690952255126037 -0.2679491924311228
v 1.1179378605318047 0.22408887241858733 -0.31531636517649925
v 1.1875 1.940511162058585e-17 -0.33493649053890356
v 1.117937860531805 -0.2240888724185873 -0.31531636517649925
v 0.9499999999999998 -0.31690952255126037 -0.2679491924311228
v 0.7820621394681947 -0.22408887241858738 -0.22058201968574623
v 0.7124999999999999 -5.821533486175754e-17 -0.2009618943233421
v 0.7820621394681947 0.22408887241858727 -0.2205820196857462
v 0.6954482671904334 0.31690952255126037 -0.7320508075688773
v 0.8183873136141306 0.22408887241858733 -0.8614603301201376
v 0.8693103339880416 1.940511162058585e-17 -0.9150635094610964
v 0.8183873136141308 -0.2240888724185873 -0.8614603301201377
v 0.6954482671904334 -0.31690952255126037 -0.7320508075688773
v 0.5725092207667362 -0.22408887241858738 -0.6026412850176169
v 0.5215862003928251 -5.821533486175754e-17 -0.549038105676658
v 0.572509220766736 0.22408887241858727 -0.6026412850176168
v 0.2545517328095668 0.31690952255126037 -1
v 0.2995505469176746 0.22408887241858733 -1.1767766952966368
v 0.3181896660119585 1.940511162058585e-17 -1.2499999999999998
v 0.2995505469176746 -0.2240888724185873 -1.176776695296637
v 0.2545517328095668 -0.31690952255126037 -1
v 0.20955291870145906 -0.22408887241858738 -0.8232233047033628
v 0.19091379960717508 -5.821533486175754e-17 -0.7499999999999999
v 0.20955291870145906 0.22408887241858727 -0.8232233047033628
v -0.25455173280956617 0.31690952255126037 -1.0000000000000002
v -0.2995505469176737 0.22408887241858733 -1.176776695296637
v -0.3181896660119577 1.940511162058585e-17 -1.25
v -0.29955054691767374 -0.2240888724185873 -1.1767766952966372
v -0.25455173280956617 -0.31690952255126037 -1.0000000000000002
v -0.20955291870145853 -0.22408887241858738 -0.8232233047033634
v -0.19091379960717456 -5.821533486175754e-17 -0.75
v -0.20955291870145853 0.22408887241858727 -0.8232233047033628
v -0.6954482671904333 0.31690952255126037 -0.7320508075688774
v -0.8183873136141305 0.22408887241858733 -0.8614603301201378
v -0.8693103339880415 1.940511162058585e-17 -0.9150635094610969
v -0.8183873136141306 -0.2240888724185873 -0.861460330120138
v -0.6954482671904333 -0.31690952255126037 -0.7320508075688774
v -0.572509220766736 -0.22408887241858738 -0.602641285017617
v -0.5215862003928251 -5.821533486175754e-17 -0.549038105676658
v -0.572509220766736 0.22408887241858727 -0.6026412850176169
v -0.9499999999999998 0.31690952255126037 -0.2679491924311226
v -1.1179378605318047 0.22408887241858733 -0.31531636517649897
v -1.1875 1.940511162058585e-17 -0.3349364905389031
v -1.117937860531805 -0.2240888724185873 -0.315316365176499
v -0.9499999999999998 -0.31690952255126037 -0.2679491924311226
v -0.7820621394681947 -0.22408887241858738 -0.2205820196857461
v -0.7124999999999999 -5.821533486175754e-17 -0.20096189432334194
v -0.7820621394681947 0.22408887241858727 -0.22058201968574606
v -0.95 0.31690952255126037 0.2679491924311222
v -1.1179378605318047 0.22408887241858733 0.31531636517649864
v -1.1875 1.940511162058585e-17 0.3349364905389028
v -1.117937860531805 -0.2240888724185873 0.31531636517649864
v -0.95 -0.31690952255126037 0.2679491924311222
v -0.7820621394681949 -0.22408887241858738 0.2205820196857458
v -0.7124999999999999 -5.821533486175754e-17 0.20096189432334166
v -0.7820621394681947 0.22408887241858727 0.22058201968574576
v -0.6954482671904334 0.31690952255126037 0.7320508075688773
v -0.8183873136141308 0.22408887241858733 0.8614603301201376
v -0.8693103339880417 1.940511162058585e-17 0.9150635094610963
v -0.8183873136141311 -0.2240888724185873 0.8614603301201376
v -0.6954482671904334 -0.31690952255126037 0.7320508075688773
v -0.5725092207667362 -0.22408887241858738 0.6026412850176168
v -0.5215862003928251 -5.821533486175754e-17 0.5490381056766579
v -0.5725092207667362 0.22408887241858727 0.6026412850176167
v -0.25455173280956644 0.31690952255126037 1
v -0.2995505469176741 0.22408887241858733 1.176776695296637
v -0.31818966601195803 1.940511162058585e-17 1.25
v -0.29955054691767413 -0.2240888724185873 1.1767766952966372
v -0.25455173280956644 -0.31690952255126037 1
v -0.2095529187014588 -0.22408887241858738 0.8232233047033628
v -0.1909137996071748 -5.821533486175754e-17 0.75
v -0.20955291870145878 0.22408887241858727 0.8232233047033628
vt 0.023681249999999987 0.9999999999999973
vt 0 0.9038249999999973
vt 0.3153125 0.9038249999999973
vt 0.29163125 0.9999999999999973
vt 0.009812500000000002 1
vt 0 0.90144375
vt 0.3349375 0.90144375
vt 0.325125 1
vt 0 1
vt 0.009812500000000002 0.90144375
vt 0.325125 0.90144375
vt 0.3349375 1
vt 0 1
vt 0.023681249999999987 0.903825
vt 0.29163125 0.903825
vt 0.3153125 1
vt 0.26795 0.9038312500000001
vt 0.24426875 1
vt 0.023681250000000015 1
vt 0 0.9038312500000001
vt 0.2205875 0.9014375
vt 0.210775 1
vt 0.009812500000000002 1
vt 0 0.9014375
vt 0.210775 0.9014375
vt 0.2205875 1
vt 0 1
vt 0.009812500000000002 0.9014375
vt 0.24426875 0.9038312500000001
vt 0.26795 1
vt 0 1
vt 0.023681250000000015 0.9038312500000001
vt 0.023681249999999987 0.9999999999999973
vt 0 0.9038249999999973
vt 0.3153125 0.9038249999999973
vt 0.29163125 0.9999999999999973
vt 0.009812500000000002 1
vt 0 0.90144375
vt 0.3349375 0.90144375
vt 0.325125 1
vt 0 1
vt 0.009812500000000002 0.90144375
vt 0.325125 0.90144375
vt 0.3349375 1
vt 0 1
vt 0.023681249999999987 0.903825
vt 0.29163125 0.903825
vt 0.3153125 1
vt 0.26795 0.9038312500000001
vt 0.24426875 1
vt 0.023681250000000015 1
vt 0 0.9038312500000001
vt 0.2205875 0.9014375
vt 0.210775 1
vt 0.009812500000000002 1
vt 0 0.9014375
vt 0.210775 0.9014375
vt 0.2205875 1
vt 0 1
vt 0.009812500000000002 0.9014375
vt 0.24426875 0.9038312500000001
vt 0.26795 1
vt 0 1
vt 0.023681250000000015 0.9038312500000001
vt 0.023681249999999987 0.9999999999999973
vt 0 0.9038249999999973
vt 0.3153125 0.9038249999999973
vt 0.29163125 0.9999999999999973
vt 0.009812500000000002 1
vt 0 0.90144375
vt 0.3349375 0.90144375
vt 0.325125 1
vt 0 1
vt 0.009812500000000002 0.90144375
vt 0.325125 0.90144375
vt 0.3349375 1
vt 0 1
vt 0.023681249999999987 0.903825
vt 0.29163125 0.903825
vt 0.3153125 1
vt 0.26795 0.9038312500000001
vt 0.24426875 1
vt 0.023681250000000015 1
vt 0 0.9038312500000001
vt 0.2205875 0.9014375
vt 0.210775 1
vt 0.009812500000000002 1
vt 0 0.9014375
vt 0.210775 0.9014375
vt 0.2205875 1
vt 0 1
vt 0.009812500000000002 0.9014375
vt 0.24426875 0.9038312500000001
vt 0.26795 1
vt 0 1
vt 0.023681250000000015 0.9038312500000001
vt 0.023681249999999987 0.9999999999999973
vt 0 0.9038249999999973
vt 0.3153125 0.9038249999999973
vt 0.29163125 0.9999999999999973
vt 0.009812500000000002 1
vt 0 0.90144375
vt 0.3349375 0.90144375
vt 0.325125 1
vt 0 1
vt 0.009812500000000002 0.90144375
vt 0.325125 0.90144375
vt 0.3349375 1
vt 0 1
vt 0.023681249999999987 0.903825
vt 0.29163125 0.903825
vt 0.3153125 1
vt 0.26795 0.9038312500000001
vt 0.24426875 1
vt 0.023681250000000015 1
vt 0 0.9038312500000001
vt 0.2205875 0.9014375
vt 0.210775 1
vt 0.009812500000000002 1
vt 0 0.9014375
vt 0.210775 0.9014375
vt 0.2205875 1
vt 0 1
vt 0.009812500000000002 0.9014375
vt 0.24426875 0.9038312500000001
vt 0.26795 1
vt 0 1
vt 0.023681250000000015 0.9038312500000001
vt 0.023681249999999987 0.9999999999999973
vt 0 0.9038249999999973
vt 0.3153125 0.9038249999999973
vt 0.29163125 0.9999999999999973
vt 0.009812500000000002 1
vt 0 0.90144375
vt 0.3349375 0.90144375
vt 0.325125 1
vt 0 1
vt 0.009812500000000002 0.90144375
vt 0.325125 0.90144375
vt 0.3349375 1
vt 0 1
vt 0.023681249999999987 0.903825
vt 0.29163125 0.903825
vt 0.3153125 1
vt 0.26795 0.9038312500000001
vt 0.24426875 1
vt 0.023681250000000015 1
vt 0 0.9038312500000001
vt 0.2205875 0.9014375
vt 0.210775 1
vt 0.009812500000000002 1
vt 0 0.9014375
vt 0.210775 0.9014375
vt 0.2205875 1
vt 0 1
vt 0.009812500000000002 0.9014375
vt 0.24426875 0.9038312500000001
vt 0.26795 1
vt 0 1
vt 0.023681250000000015 0.9038312500000001
vt 0.023681249999999987 0.9999999999999973
vt 0 0.9038249999999973
vt 0.3153125 0.9038249999999973
vt 0.29163125 0.9999999999999973
vt 0.009812500000000002 1
vt 0 0.90144375
vt 0.3349375 0.90144375
vt 0.325125 1
vt 0 1
vt 0.009812500000000002 0.90144375
vt 0.325125 0.90144375
vt 0.3349375 1
vt 0 1
vt 0.023681249999999987 0.903825
vt 0.29163125 0.903825
vt 0.3153125 1
vt 0.26795 0.9038312500000001
vt 0.24426875 1
vt 0.023681250000000015 1
vt 0 0.9038312500000001
vt 0.2205875 0.9014375
vt 0.210775 1
vt 0.009812500000000002 1
vt 0 0.9014375
vt 0.210775 0.9014375
vt 0.2205875 1
vt 0 1
vt 0.009812500000000002 0.9014375
vt 0.24426875 0.9038312500000001
vt 0.26795 1
vt 0 1
vt 0.023681250000000015 0.9038312500000001
vt 0.023681249999999987 0.9999999999999973
vt 0 0.9038249999999973
vt 0.3153125 0.9038249999999973
vt 0.29163125 0.9999999999999973
vt 0.009812500000000002 1
vt 0 0.90144375
vt 0.3349375 0.90144375
vt 0.325125 1
vt 0 1
vt 0.009812500000000002 0.90144375
vt 0.325125 0.90144375
vt 0.3349375 1
vt 0 1
vt 0.023681249999999987 0.903825
vt 0.29163125 0.903825
vt 0.3153125 1
vt 0.26795 0.9038312500000001
vt 0.24426875 1
vt 0.023681250000000015 1
vt 0 0.9038312500000001
vt 0.2205875 0.9014375
vt 0.210775 1
vt 0.009812500000000002 1
vt 0 0.9014375
vt 0.210775 0.9014375
vt 0.2205875 1
vt 0 1
vt 0.009812500000000002 0.9014375
vt 0.24426875 0.9038312500000001
vt 0.26795 1
vt 0 1
vt 0.023681250000000015 0.9038312500000001
vt 0.023681249999999987 0.9999999999999973
vt 0 0.9038249999999973
vt 0.3153125 0.9038249999999973
vt 0.29163125 0.9999999999999973
vt 0.009812500000000002 1
vt 0 0.90144375
vt 0.3349375 0.90144375
vt 0.325125 1
vt 0 1
vt 0.009812500000000002 0.90144375
vt 0.325125 0.90144375
vt 0.3349375 1
vt 0 1
vt 0.023681249999999987 0.903825
vt 0.29163125 0.903825
vt 0.3153125 1
vt 0.26795 0.9038312500000001
vt 0.24426875 1
vt 0.023681250000000015 1
vt 0 0.9038312500000001
vt 0.2205875 0.9014375
vt 0.210775 1
vt 0.009812500000000002 1
vt 0 0.9014375
vt 0.210775 0.9014375
vt 0.2205875 1
vt 0 1
vt 0.009812500000000002 0.9014375
vt 0.24426875 0.9038312500000001
vt 0.26795 1
vt 0 1
vt 0.023681250000000015 0.9038312500000001
vt 0.023681249999999987 0.9999999999999973
vt 0 0.9038249999999973
vt 0.3153125 0.9038249999999973
vt 0.29163125 0.9999999999999973
vt 0.009812500000000002 1
vt 0 0.90144375
vt 0.3349375 0.90144375
vt 0.325125 1
vt 0 1
vt 0.009812500000000002 0.90144375
vt 0.325125 0.90144375
vt 0.3349375 1
vt 0 1
vt 0.023681249999999987 0.903825
vt 0.29163125 0.903825
vt 0.3153125 1
vt 0.26795 0.9038312500000001
vt 0.24426875 1
vt 0.023681250000000015 1
vt 0 0.9038312500000001
vt 0.2205875 0.9014375
vt 0.210775 1
vt 0.009812500000000002 1
vt 0 0.9014375
vt 0.210775 0.9014375
vt 0.2205875 1
vt 0 1
vt 0.009812500000000002 0.9014375
vt 0.24426875 0.9038312500000001
vt 0.26795 1
vt 0 1
vt 0.023681250000000015 0.9038312500000001
vt 0.023681249999999987 0.9999999999999973
vt 0 0.9038249999999973
vt 0.3153125 0.9038249999999973
vt 0.29163125 0.9999999999999973
vt 0.009812500000000002 1
vt 0 0.90144375
vt 0.3349375 0.90144375
vt 0.325125 1
vt 0 1
vt 0.009812500000000002 0.90144375
vt 0.325125 0.90144375
vt 0.3349375 1
vt 0 1
vt 0.023681249999999987 0.903825
vt 0.29163125 0.903825
vt 0.3153125 1
vt 0.26795 0.9038312500000001
vt 0.24426875 1
vt 0.023681250000000015 1
vt 0 0.9038312500000001
vt 0.2205875 0.9014375
vt 0.210775 1
vt 0.009812500000000002 1
vt 0 0.9014375
vt 0.210775 0.9014375
vt 0.2205875 1
vt 0 1
vt 0.009812500000000002 0.9014375
vt 0.24426875 0.9038312500000001
vt 0.26795 1
vt 0 1
vt 0.023681250000000015 0.9038312500000001
vt 0.023681249999999987 0.9999999999999973
vt 0 0.9038249999999973
vt 0.3153125 0.9038249999999973
vt 0.29163125 0.9999999999999973
vt 0.009812500000000002 1
vt 0 0.90144375
vt 0.3349375 0.90144375
vt 0.325125 1
vt 0 1
vt 0.009812500000000002 0.90144375
vt 0.325125 0.90144375
vt 0.3349375 1
vt 0 1
vt 0.023681249999999987 0.903825
vt 0.29163125 0.903825
vt 0.3153125 1
vt 0.26795 0.9038312500000001
vt 0.24426875 1
vt 0.023681250000000015 1
vt 0 0.9038312500000001
vt 0.2205875 0.9014375
vt 0.210775 1
vt 0.009812500000000002 1
vt 0 0.9014375
vt 0.210775 0.9014375
vt 0.2205875 1
vt 0 1
vt 0.009812500000000002 0.9014375
vt 0.24426875 0.9038312500000001
vt 0.26795 1
vt 0 1
vt 0.023681250000000015 0.9038312500000001
vt 0.023681249999999987 0.9999999999999973
vt 0 0.9038249999999973
vt 0.3153125 0.9038249999999973
vt 0.29163125 0.9999999999999973
vt 0.009812500000000002 1
vt 0 0.90144375
vt 0.3349375 0.90144375
vt 0.325125 1
vt 0 1
vt 0.009812500000000002 0.90144375
vt 0.325125 0.90144375
vt 0.3349375 1
vt 0 1
vt 0.023681249999999987 0.903825
vt 0.29163125 0.903825
vt 0.3153125 1
vt 0.26795 0.9038312500000001
vt 0.24426875 1
vt 0.023681250000000015 1
vt 0 0.9038312500000001
vt 0.2205875 0.9014375
vt 0.210775 1
vt 0.009812500000000002 1
vt 0 0.9014375
vt 0.210775 0.9014375
vt 0.2205875 1
vt 0 1
vt 0.009812500000000002 0.9014375
vt 0.24426875 0.9038312500000001
vt 0.26795 1
vt 0 1
vt 0.023681250000000015 0.9038312500000001
vn 0.2439650739338046 0.8827986553070891 0.4014319081593645
vn 0.49429009893499776 0.3068771459176849 0.8133287867819793
vn 0.49429009893499787 -0.30687714591768406 0.8133287867819796
vn 0.24396507393380423 -0.8827986553070896 0.4014319081593644
vn -0.24396507393380387 -0.8827986553070897 -0.40143190815936414
vn -0.4942900989349974 -0.3068771459176839 -0.8133287867819797
vn -0.49429009893499687 0.30687714591768395 -0.8133287867819801
vn -0.24396507393380432 0.8827986553070893 -0.40143190815936447
vn 0.4201288874410781 0.8777198545570942 0.23043344994552206
vn 0.8364421236793597 0.2998181387663254 0.45877408100442996
vn 0.8364421236793601 -0.2998181387663248 0.45877408100442985
vn 0.420128887441078 -0.8777198545570944 0.23043344994552206
vn -0.4201288874410779 -0.8777198545570946 -0.23043344994552176
vn -0.83644212367936 -0.29981813876632546 -0.45877408100442923
vn -0.8364421236793601 0.29981813876632546 -0.4587740810044291
vn -0.420128887441078 0.8777198545570942 -0.23043344994552206
vn 0.4837375517944565 0.8752131060398408 0
vn 0.9550432422074427 0.2964665335478795 0
vn 0.9550432422074434 -0.2964665335478777 0
vn 0.4837375517944556 -0.8752131060398415 0
vn -0.48373755179445554 -0.8752131060398415 0
vn -0.9550432422074435 -0.2964665335478773 0
vn -0.9550432422074434 0.2964665335478773 0
vn -0.483737551794456 0.8752131060398413 0
vn 0.4201288874410782 0.8777198545570941 -0.23043344994552215
vn 0.8364421236793591 0.2998181387663273 -0.4587740810044298
vn 0.8364421236793597 -0.29981813876632574 -0.4587740810044296
vn 0.42012888744107746 -0.8777198545570946 -0.2304334499455218
vn -0.42012888744107735 -0.8777198545570948 0.23043344994552145
vn -0.83644212367936 -0.29981813876632507 0.45877408100442946
vn -0.8364421236793601 0.299818138766325 0.45877408100442935
vn -0.4201288874410776 0.8777198545570944 0.23043344994552187
vn 0.24396507393380493 0.8827986553070891 -0.4014319081593649
vn 0.4942900989349977 0.30687714591768467 -0.8133287867819793
vn 0.4942900989349979 -0.306877145917684 -0.8133287867819795
vn 0.2439650739338047 -0.8827986553070892 -0.4014319081593648
vn -0.24396507393380432 -0.8827986553070891 0.4014319081593648
vn -0.49429009893499726 -0.3068771459176852 0.8133287867819794
vn -0.49429009893499726 0.3068771459176846 0.8133287867819796
vn -0.2439650739338047 0.882798655307089 0.4014319081593647
vn 1.7402507868375103e-16 0.8853713416055241 -0.4648844883018085
vn 3.2375971894918877e-16 0.31059890416230457 -0.9505410673575213
vn 3.4390522033959133e-16 -0.31059890416230373 -0.9505410673575215
vn 2.0478865699220152e-16 -0.8853713416055243 -0.4648844883018081
vn -6.219110167987594e-16 -0.8853713416055248 0.46488448830180723
vn -2.6979976579099074e-16 -0.3105989041623041 0.9505410673575213
vn 0 0.31059890416230407 0.9505410673575213
vn -2.0478865699220138e-16 0.8853713416055246 0.4648844883018079
vn -0.24396507393380465 0.882798655307089 -0.4014319081593651
vn -0.494290098934997 0.30687714591768495 -0.8133287867819796
vn -0.49429009893499726 -0.30687714591768406 -0.8133287867819797
vn -0.24396507393380454 -0.8827986553070891 -0.4014319081593647
vn 0.2439650739338044 -0.8827986553070893 0.4014319081593647
vn 0.4942900989349967 -0.306877145917686 0.8133287867819794
vn 0.4942900989349966 0.30687714591768417 0.8133287867819802
vn 0.24396507393380418 0.8827986553070895 0.40143190815936414
vn -0.42012888744107807 0.8777198545570942 -0.23043344994552192
vn -0.8364421236793599 0.29981813876632596 -0.45877408100442957
vn -0.83644212367936 -0.2998181387663252 -0.4587740810044296
vn -0.4201288874410776 -0.8777198545570944 -0.23043344994552184
vn 0.42012888744107796 -0.8777198545570943 0.23043344994552167
vn 0.83644212367936 -0.29981813876632574 0.4587740810044292
vn 0.8364421236793601 0.2998181387663255 0.4587740810044291
vn 0.42012888744107807 0.8777198545570942 0.23043344994552203
vn -0.4837375517944565 0.8752131060398409 0
vn -0.9550432422074429 0.2964665335478795 0
vn -0.9550432422074434 -0.2964665335478777 0
vn -0.48373755179445566 -0.8752131060398415 -1.0121951555538926e-16
vn 0.48373755179445554 -0.8752131060398415 2.459102286757111e-16
vn 0.9550432422074434 -0.2964665335478773 0
vn 0.9550432422074435 0.29646653354787733 0
vn 0.483737551794456 0.8752131060398413 1.012195155553893e-16
vn -0.4201288874410785 0.8777198545570942 0.23043344994552195
vn -0.8364421236793596 0.29981813876632707 0.45877408100442946
vn -0.8364421236793603 -0.29981813876632557 0.45877408100442907
vn -0.42012888744107774 -0.8777198545570944 0.23043344994552178
vn 0.4201288874410777 -0.8777198545570944 -0.23043344994552156
vn 0.83644212367936 -0.29981813876632585 -0.45877408100442896
vn 0.8364421236793603 0.299818138766325 -0.45877408100442885
vn 0.4201288874410777 0.8777198545570947 -0.23043344994552167
vn -0.2439650739338048 0.8827986553070891 0.4014319081593649
vn -0.4942900989349978 0.3068771459176843 0.8133287867819794
vn -0.49429009893499787 -0.3068771459176836 0.8133287867819796
vn -0.24396507393380448 -0.8827986553070892 0.4014319081593647
vn 0.24396507393380415 -0.8827986553070892 -0.40143190815936475
vn 0.4942900989349973 -0.3068771459176851 -0.8133287867819793
vn 0.4942900989349971 0.30687714591768483 -0.8133287867819798
vn 0.24396507393380448 0.8827986553070892 -0.4014319081593647
vn 0 0.8853713416055243 0.46488448830180806
vn 0 0.3105989041623046 0.9505410673575213
vn 0 -0.3105989041623036 0.9505410673575215
vn 0 -0.8853713416055246 0.4648844883018077
vn 0 -0.8853713416055248 -0.4648844883018075
vn 0 -0.3105989041623037 -0.9505410673575215
vn 0 0.31059890416230373 -0.9505410673575216
vn 0 0.8853713416055244 -0.4648844883018079
#usemtl none
f 1/1/1 2/2/1 10/3/1 9/4/1
f 2/5/2 3/6/2 11/7/2 10/8/2
f 3/9/3 4/10/3 12/11/3 11/12/3
f 4/13/4 5/14/4 13/15/4 12/16/4
f 5/17/5 6/18/5 14/19/5 13/20/5
f 6/21/6 7/22/6 15/23/6 14/24/6
f 7/25/7 8/26/7 16/27/7 15/28/7
f 8/29/8 1/30/8 9/31/8 16/32/8
f 9/33/9 10/34/9 18/35/9 17/36/9
f 10/37/10 11/38/10 19/39/10 18/40/10
f 11/41/11 12/42/11 20/43/11 19/44/11
f 12/45/12 13/46/12 21/47/12 20/48/12
f 13/49/13 14/50/13 22/51/13 21/52/13
f 14/53/14 15/54/14 23/55/14 22/56/14
f 15/57/15 16/58/15 24/59/15 23/60/15
f 16/61/16 9/62/16 17/63/16 24/64/16
f 17/65/17 18/66/17 26/67/17 25/68/17
f 18/69/18 19/70/18 27/71/18 26/72/18
f 19/73/19 20/74/19 28/75/19 27/76/19
f 20/77/20 21/78/20 29/79/20 28/80/20
f 21/81/21 22/82/21 30/83/21 29/84/21
f 22/85/22 23/86/22 31/87/22 30/88/22
f 23/89/23 24/90/23 32/91/23 31/92/23
f 24/93/24 17/94/24 25/95/24 32/96/24
f 25/97/25 26/98/25 34/99/25 33/100/25
f 26/101/26 27/102/26 35/103/26 34/104/26
f 27/105/27 28/106/27 36/107/27 35/108/27
f 28/109/28 29/110/28 37/111/28 36/112/28
f 29/113/29 30/114/29 38/115/29 37/116/29
f 30/117/30 31/118/30 39/119/30 38/120/30
f 31/121/31 32/122/31 40/123/31 39/124/31
f 32/125/32 25/126/32 33/127/32 40/128/32
f 33/129/33 34/130/33 42/131/33 41/132/33
f 34/133/34 35/134/34 43/135/34 42/136/34
f 35/137/35 36/138/35 44/139/35 43/140/35
f 36/141/36 37/142/36 45/143/36 44/144/36
f 37/145/37 38/146/37 46/147/37 45/148/37
f 38/149/38 39/150/38 47/151/38 46/152/38
f 39/153/39 40/154/39 48/155/39 47/156/39
f 40/157/40 33/158/40 41/159/40 48/160/40
f 41/161/41 42/162/41 50/163/41 49/164/41
f 42/165/42 43/166/42 51/167/42 50/168/42
f 43/169/43 44/170/43 52/171/43 51/172/43
f 44/173/44 45/174/44 53/175/44 52/176/44
f 45/177/45 46/178/45 54/179/45 53/180/45
f 46/181/46 47/182/46 55/183/46 54/184/46
f 47/185/47 48/186/47 56/187/47 55/188/47
f 48/189/48 41/190/48 49/191/48 56/192/48
f 49/193/49 50/194/49 58/195/49 57/196/49
f 50/197/50 51/198/50 59/199/50 58/200/50
f 51/201/51 52/202/51 60/203/51 59/204/51
f 52/205/52 53/206/52 61/207/52 60/208/52
f 53/209/53 54/210/53 62/211/53 61/212/53
f 54/213/54 55/214/54 63/215/54 62/216/54
f 55/217/55 56/218/55 64/219/55 63/220/55
f 56/221/56 49/222/56 57/223/56 64/224/56
f 57/225/57 58/226/57 66/227/57 65/228/57
f 58/229/58 59/230/58 67/231/58 66/232/58
f 59/233/59 60/234/59 68/235/59 67/236/59
f 60/237/60 61/238/60 69/239/60 68/240/60
f 61/241/61 62/242/61 70/243/61 69/244/61
f 62/245/62 63/246/62 71/247/62 70/248/62
f 63/249/63 64/250/63 72/251/63 71/252/63
f 64/253/64 57/254/64 65/255/64 72/256/64
f 65/257/65 66/258/65 74/259/65 73/260/65
f 66/261/66 67/262/66 75/263/66 74/264/66
f 67/265/67 68/266/67 76/267/67 75/268/67
f 68/269/68 69/270/68 77/271/68 76/272/68
f 69/273/69 70/274/69 78/275/69 77/276/69
f 70/277/70 71/278/70 79/279/70 78/280/70
f 71/281/71 72/282/71 80/283/71 79/284/71
f 72/285/72 65/286/72 73/287/72 80/288/72
f 73/289/73 74/290/73 82/291/73 81/292/73
f 74/293/74 75/294/74 83/295/74 82/296/74
f 75/297/75 76/298/75 84/299/75 83/300/75
f 76/301/76 77/302/76 85/303/76 84/304/76
f 77/305/77 78/306/77 86/307/77 85/308/77
f 78/309/78 79/310/78 87/311/78 86/312/78
f 79/313/79 80/314/79 88/315/79 87/316/79
f 80/317/80 73/318/80 81/319/80 88/320/80
f 81/321/81 82/322/81 90/323/81 89/324/81
f 82/325/82 83/326/82 91/327/82 90/328/82
f 83/329/83 84/330/83 92/331/83 91/332/83
f 84/333/84 85/334/84 93/335/84 92/336/84
f 85/337/85 86/338/85 94/339/85 93/340/85
f 86/341/86 87/342/86 95/343/86 94/344/86
f 87/345/87 88/346/87 96/347/87 95/348/87
f 88/349/88 81/350/88 89/351/88 96/352/88
f 89/353/89 90/354/89 2/355/89 1/356/89
f 90/357/90 91/358/90 3/359/90 2/360/90
f 91/361/91 92/362/91 4/363/91 3/364/91
f 92/365/92 93/366/92 5/367/92 4/368/92
f 93/369/93 94/370/93 6/371/93 5/372/93
f 94/373/94 95/374/94 7/375/94 6/376/94
f 95/377/95 96/378/95 8/379/95 7/380/95
f 96/381/96 89/382/96 1/383/96 8/384/96